<svg xmlns="http://www.w3.org/2000/svg" width="152" height="43" viewBox="0 0 152 43" fill="none"><path d="M139.147 42.3965C140.33 42.7104 141.562 42.9025 143.032 42.9756C147.591 43.1951 151.19 41.287 151.477 38.0803C151.742 35.0901 149.763 33.8343 145.249 32.7248C141.148 31.7372 139.626 31.0818 139.894 29.6614C140.159 28.1647 142.139 27.4667 144.237 27.5612C146.286 27.6344 147.832 28.4055 149.4 29.4907C149.616 29.637 149.93 29.4907 149.93 29.2011V25.3666C149.93 25.1501 149.714 24.9581 149.494 25.0282L148.192 25.4641C147.927 25.5586 147.71 25.5373 147.469 25.4885C146.625 25.2934 145.685 25.1745 144.694 25.1258C140.349 24.9093 137.07 26.5492 136.777 29.7559C136.512 32.8436 138.659 33.9531 143.172 35.0627C147.131 36.0259 148.555 36.8489 148.409 38.1504C148.241 39.5983 145.826 40.6346 143.462 40.5127C141.05 40.3908 139.022 39.452 137.259 38.1504C137.018 38.0041 136.68 38.1504 136.68 38.44V42.3721C136.68 42.5885 136.896 42.7592 137.113 42.7104L138.439 42.3965C138.68 42.3477 138.921 42.3477 139.138 42.3965M122.307 42.5154C125.805 42.5154 131.526 41.6954 131.526 34.0751C131.526 26.4547 125.662 25.6317 122.307 25.6317H114.851C114.561 25.6317 114.393 25.9457 114.537 26.1621L115.116 27.0308C115.263 27.2716 115.333 27.5368 115.333 27.802V40.342C115.333 40.6072 115.259 40.8724 115.116 41.0919L114.537 41.9575C114.393 42.1983 114.561 42.5123 114.851 42.5123H122.307V42.5154ZM118.785 39.9854C118.593 39.9854 118.446 39.8147 118.446 39.6227V28.3842C118.446 28.1891 118.593 28.0215 118.785 28.0215H122.572C124.311 28.0215 128.437 28.5275 128.437 34.0751C128.437 39.6227 124.311 39.9824 122.572 39.9824H118.785V39.9854ZM95.4584 42.5154C95.7482 42.5154 95.9159 42.2014 95.7481 41.9606L95.1931 41.0949C95.0467 40.8785 94.9522 40.6133 94.9522 40.3451V30.7221C94.9522 30.5758 95.1687 30.5057 95.2663 30.6246L104.845 42.2502C104.991 42.4209 105.184 42.5154 105.4 42.5154H108.465C108.755 42.5154 108.922 42.2014 108.779 41.9606L108.2 41.0949C108.056 40.8785 107.983 40.6133 107.983 40.3451V27.8051C107.983 27.5399 108.056 27.2747 108.2 27.0339L108.779 26.1652C108.925 25.9488 108.755 25.6348 108.465 25.6348H104.531C104.241 25.6348 104.074 25.9488 104.217 26.1652L104.796 27.0339C104.94 27.2747 105.013 27.5399 105.013 27.8051V37.3305C105.013 37.5012 104.821 37.5713 104.723 37.4524L95.1931 25.9C95.0467 25.7293 94.8546 25.6348 94.6381 25.6348H91.5001C91.2347 25.6348 91.067 25.9488 91.2104 26.1652L91.7654 27.0339C91.9331 27.2747 92.0063 27.5399 92.0063 27.8051V40.3451C92.0063 40.6103 91.9331 40.8755 91.7654 41.0949L91.2104 41.9606C91.064 42.2014 91.2347 42.5154 91.5001 42.5154H95.4584ZM69.3539 36.4404C69.3539 40.9029 72.0558 43 77.2218 43C82.3879 43 85.0867 40.9029 85.0867 36.4404V27.8051C85.0867 27.5399 85.1599 27.2747 85.3277 27.0583L85.8827 26.1652C86.0047 25.9488 85.8583 25.6348 85.593 25.6348H81.6346C81.3449 25.6348 81.1772 25.9488 81.3205 26.1652L81.8999 27.0583C82.0463 27.2747 82.1164 27.5399 82.1164 27.8051V36.4404C82.1164 38.949 80.6465 40.2018 77.2188 40.2018C73.791 40.2018 72.2967 38.949 72.2967 36.4404V27.8051C72.2967 27.5399 72.3943 27.2747 72.5377 27.0583L73.0927 26.1652C73.2635 25.9488 73.0927 25.6348 72.806 25.6348H68.8476C68.5579 25.6348 68.4146 25.9488 68.5579 26.1652L69.1129 27.0583C69.2593 27.2747 69.3539 27.5399 69.3539 27.8051V36.4404ZM45.323 34.0507C45.323 40.4182 49.5925 43 54.8042 43C60.016 43 64.2885 40.4182 64.2885 34.0507C64.2885 27.6831 60.0404 25.1044 54.8042 25.1044C49.5681 25.1044 45.323 27.7106 45.323 34.0507ZM61.0315 34.0507C61.0315 38.5132 58.2564 40.3451 54.8042 40.3451C51.3521 40.3451 48.58 38.5132 48.58 34.0507C48.58 29.5882 51.3795 27.7807 54.8042 27.7807C58.2289 27.7807 61.0315 29.6126 61.0315 34.0507ZM29.0412 42.5154C29.3065 42.5154 29.4773 42.2014 29.3309 41.9606L28.7759 41.0949C28.6082 40.8785 28.535 40.6133 28.535 40.3451V36.3673C28.535 36.1722 28.7027 36.0076 28.8979 36.0076H33.6766C33.9419 36.0076 34.1828 36.1265 34.3506 36.3215C35.3173 37.5743 36.2108 38.9246 36.958 40.3237C37.1013 40.5889 37.1745 40.9273 37.1013 41.2382L36.958 42.1069C36.9092 42.3233 37.08 42.5154 37.2965 42.5154H41.447C41.7611 42.5154 41.9044 42.1313 41.6879 41.9149L40.6998 40.9974C40.5321 40.8297 40.3857 40.6621 40.2912 40.4426C39.8337 39.5983 38.5285 37.1628 37.5404 35.7394C37.4429 35.593 37.4916 35.3766 37.6624 35.3065C39.2543 34.5841 40.4132 33.2307 40.4132 30.8197C40.4132 26.9851 37.638 25.6348 33.704 25.6348H24.9425C24.6528 25.6348 24.5095 25.9488 24.6528 26.1652L25.2079 27.0339C25.3542 27.2747 25.4488 27.5399 25.4488 27.8051V40.3451C25.4488 40.6103 25.3512 40.8755 25.2079 41.0949L24.6528 41.9606C24.5064 42.2014 24.6528 42.5154 24.9425 42.5154H29.0443H29.0412ZM28.8948 33.6179C28.6996 33.6179 28.5319 33.4472 28.5319 33.2551V28.3842C28.5319 28.1891 28.6996 28.0215 28.8948 28.0215H34.0364C35.8693 28.0215 37.0281 29.0822 37.0281 30.8197C37.0281 32.5571 35.8937 33.6179 34.0364 33.6179H28.8948ZM0.5 34.0507C0.5 40.0555 4.74504 43 10.152 43C15.5589 43 19.1758 40.6133 18.7183 33.6179C18.6939 33.3496 18.4774 33.1606 18.2365 33.1606H10.4905C10.2984 33.1606 10.152 33.3283 10.152 33.5203V36.0533C10.152 36.3429 10.4417 36.5105 10.6826 36.3429L11.5518 35.7881C11.7927 35.6418 12.058 35.5473 12.3233 35.5473H15.5345C15.7023 35.5473 15.8242 35.6906 15.8242 35.8369C15.751 38.4187 13.6529 40.4426 10.152 40.4426C6.65104 40.4426 3.75697 38.5619 3.75697 34.0507C3.75697 29.5394 6.6297 27.6618 10.152 27.6618C13.3846 27.6618 15.2692 28.9146 16.4982 30.1704C16.7147 30.3868 17.102 30.2436 17.102 29.9296V25.9274C17.102 25.6866 16.8855 25.519 16.6446 25.5921L15.5833 25.9274C15.2936 26.025 14.9551 26.0006 14.6684 25.903C13.5096 25.4458 12.0366 25.1075 10.155 25.1075C4.74809 25.1075 0.50305 28.0001 0.50305 34.0537M101.747 15.2315C101.899 15.2315 102.052 15.1218 102.073 14.9694L102.488 12.5766C102.53 12.3145 102.25 12.1194 102.009 12.2504L101.137 12.7717C100.942 12.8814 100.722 12.9454 100.484 12.9454H92.1252C91.9514 12.9454 91.7989 12.793 91.7989 12.6193V8.65974C91.7989 8.486 91.9514 8.35493 92.1252 8.35493H97.6755C97.9347 8.35493 98.1756 8.42199 98.3708 8.55306L99.1515 9.07429C99.3711 9.20536 99.6516 9.05295 99.6516 8.79081V5.74573C99.6516 5.48359 99.368 5.33118 99.1515 5.48359L98.3708 5.98348C98.1726 6.11151 97.9347 6.17856 97.6755 6.17856H92.1252C91.9514 6.17856 91.7989 6.04749 91.7989 5.87375V2.48118C91.7989 2.30744 91.9514 2.15503 92.1252 2.15503H99.8712C100.091 2.15503 100.329 2.21904 100.524 2.32877L101.393 2.85C101.631 2.98107 101.914 2.78295 101.872 2.52385L101.457 0.262139C101.414 0.109733 101.283 0 101.131 0H88.5511C88.2888 0 88.1363 0.283476 88.2888 0.499894L88.792 1.28326C88.9231 1.47834 89.0085 1.7161 89.0085 1.9569V13.2716C89.0085 13.5093 88.9231 13.7501 88.792 13.9452L88.2888 14.7286C88.1363 14.945 88.2888 15.2285 88.5511 15.2285H101.741L101.747 15.2315ZM71.4001 15.2315C71.6411 15.2315 71.7935 14.948 71.6624 14.7316L71.1409 13.9483C71.0098 13.7532 70.9458 13.5154 70.9458 13.2746V8.66279C70.9458 8.48905 71.0982 8.35798 71.2721 8.35798H79.6737C79.8475 8.35798 79.9787 8.48905 79.9787 8.66279V13.2746C79.9787 13.5124 79.9146 13.7532 79.7835 13.9483L79.259 14.7316C79.1278 14.948 79.2803 15.2315 79.5212 15.2315H83.2204C83.4827 15.2315 83.6351 14.948 83.4827 14.7316L82.9825 13.9483C82.8514 13.7532 82.766 13.5154 82.766 13.2746V1.963C82.766 1.72219 82.8514 1.48444 82.9825 1.26802L83.4827 0.484653C83.6351 0.289573 83.4827 0.00609626 83.2204 0.00609626H79.5212C79.2803 0.00609626 79.1278 0.289573 79.259 0.484653L79.7835 1.26802C79.9146 1.48749 79.9787 1.72524 79.9787 1.963V5.87985C79.9787 6.05359 79.8475 6.18466 79.6737 6.18466H71.2721C71.0982 6.18466 70.9458 6.05359 70.9458 5.87985V1.963C70.9458 1.72219 71.0128 1.48444 71.1409 1.26802L71.6624 0.484653C71.7935 0.289573 71.6411 0.00609626 71.4001 0.00609626H67.701C67.4387 0.00609626 67.2862 0.289573 67.4387 0.484653L67.9389 1.26802C68.07 1.48749 68.1554 1.72524 68.1554 1.963V13.2777C68.1554 13.5154 68.07 13.7562 67.9389 13.9513L67.4387 14.7347C67.2862 14.9511 67.4387 15.2346 67.701 15.2346H71.4001V15.2315ZM57.0975 15.2315C57.3354 15.2315 57.4879 14.948 57.3567 14.7316L56.8353 13.9483C56.7041 13.7532 56.6401 13.5154 56.6401 13.2746V2.48423C56.6401 2.31048 56.7712 2.15808 56.9664 2.15808H61.5591C61.7756 2.15808 61.9952 2.22209 62.1904 2.33182L63.0808 2.85305C63.3004 2.98412 63.6023 2.78599 63.5383 2.50556L63.1266 0.265188C63.1052 0.112781 62.9741 0.00304813 62.8216 0.00304813H47.6743C47.5218 0.00304813 47.3906 0.112781 47.3479 0.265188L46.9332 2.50556C46.8905 2.78599 47.1711 2.98412 47.412 2.85305L48.2811 2.33182C48.4763 2.22209 48.6959 2.15808 48.9337 2.15808H53.5234C53.6972 2.15808 53.8497 2.31048 53.8497 2.48423V13.2746C53.8497 13.5124 53.7643 13.7532 53.6332 13.9483L53.133 14.7316C52.9806 14.948 53.133 15.2315 53.3953 15.2315H57.0975ZM142.541 11.1257C142.541 10.3484 141.94 9.67172 140.288 9.67172C139.086 9.67172 138.238 10.0741 137.778 10.8514L138.504 11.2964C138.784 10.7691 139.385 10.4551 140.281 10.4551C141.178 10.4551 141.593 10.7233 141.593 11.1531C141.593 11.653 140.977 11.8237 139.775 12.1377C138.574 12.473 137.814 12.9241 137.814 13.8446C137.814 14.0366 137.814 14.2622 137.827 14.5213H142.434V13.6312C141.41 13.6648 139.693 13.7075 138.491 13.7471C138.558 13.2472 139.086 12.9942 140.178 12.7351C141.462 12.415 142.541 12.1407 142.541 11.1226M135.805 14.5335C135.777 12.9424 135.777 11.2872 135.805 9.69611L133.856 10.132C133.917 10.3515 133.978 10.6319 134.033 10.891C134.301 10.7904 134.649 10.6868 134.936 10.5923C134.948 11.8816 134.948 13.1923 134.929 14.5335H135.805ZM130.142 14.631C131.755 14.631 132.569 13.6069 132.569 12.1041C132.569 10.6014 131.7 9.65039 130.178 9.65039C128.528 9.65039 127.69 10.6807 127.69 12.1102C127.69 13.7105 128.58 14.631 130.145 14.631M130.178 10.4155C131.148 10.4155 131.694 10.9763 131.694 12.1163C131.694 13.2563 131.181 13.8721 130.157 13.8721C129.132 13.8721 128.565 13.3051 128.565 12.1224C128.565 11.0586 129.105 10.4155 130.178 10.4155ZM126.037 11.1257C126.037 10.3484 125.436 9.67172 123.783 9.67172C122.582 9.67172 121.734 10.0741 121.273 10.8514L121.999 11.2964C122.28 10.7691 122.88 10.4551 123.777 10.4551C124.674 10.4551 125.088 10.7233 125.088 11.1531C125.088 11.653 124.472 11.8237 123.271 12.1377C122.069 12.473 121.31 12.9241 121.31 13.8446C121.31 14.0366 121.31 14.2622 121.322 14.5213H125.927V13.6312C124.902 13.6648 123.185 13.7075 121.984 13.7471C122.051 13.2472 122.579 12.9942 123.673 12.7351C124.957 12.415 126.037 12.1407 126.037 11.1226M32.9691 13.9665C32.9691 13.6038 32.6763 13.3874 32.3744 13.3874C32.0451 13.3874 31.7675 13.6069 31.7675 13.9665C31.7675 14.3262 32.0115 14.567 32.3683 14.567C32.7251 14.567 32.9691 14.3354 32.9691 13.9665ZM28.2666 14.5335C28.2544 13.7349 28.2453 12.9424 28.2453 12.1438C28.2453 11.589 28.2453 11.0373 28.2514 10.4886C28.9131 10.4825 29.4895 10.5252 30.2885 10.5587V9.75402H25.4V10.5587C26.1868 10.5252 26.754 10.4825 27.4036 10.4886V12.1438C27.4036 12.9424 27.4036 13.7349 27.3975 14.5335H28.2666ZM18.6329 13.7898C19.1453 14.2896 19.9503 14.6371 21.161 14.6371C22.7682 14.6371 23.4086 14.0854 23.4086 13.2289C23.4086 12.3724 22.7377 11.9304 21.2708 11.7658C20.0266 11.6378 19.6698 11.4305 19.6698 11.016C19.6698 10.6258 19.9991 10.3941 20.9872 10.3941C21.8838 10.3941 22.451 10.6746 22.7926 11.022L23.3324 10.3941C22.8261 9.93081 22.1491 9.65039 21.0421 9.65039C19.6637 9.65039 18.8555 10.1137 18.8555 11.016C18.8555 11.9182 19.5326 12.3145 20.9049 12.4638C22.2985 12.5796 22.5669 12.8326 22.5669 13.2076C22.5669 13.6191 22.2375 13.869 21.3227 13.869C20.2614 13.869 19.6271 13.5764 19.1636 13.1588L18.6299 13.7867L18.6329 13.7898ZM12.1251 9.75402H16.3884V10.5313C15.0496 10.4703 14.0738 10.4429 12.979 10.4642C12.979 10.9001 12.9729 11.336 12.9729 11.7749H15.6657V12.5248C14.4275 12.4791 13.5004 12.4181 12.9729 12.4089C12.9729 12.8784 12.979 13.3569 12.979 13.8294C14.147 13.8233 15.2479 13.7958 16.5256 13.741V14.5335H12.1251C12.1373 12.9424 12.1373 11.3421 12.1251 9.75098" fill="#231F20"></path></svg>